{"title":"One Direction - Night Changes (2014.Pop)","uid":11549331,"size":125065605,"categoryP":"video","categoryS":"music_videos","magnet":"?xt=urn:btih:40678c1df253a0de2220418558c401750019a17c&amp;dn=One+Direction+-+Night+Changes+%282014.Pop%29&amp;tr=udp%3A%2F%2Ftracker.openbittorrent.com%3A80&amp;tr=udp%3A%2F%2Fopen.demonii.com%3A1337&amp;tr=udp%3A%2F%2Ftracker.coppersurfer.tk%3A6969&amp;tr=udp%3A%2F%2Fexodus.desync.com%3A6969","seeders":17,"leechers":1,"uploader":"MeRaDil","files":-1,"time":1416763696,"description":"ONE DIRECTION - NIGHT CHANGES\n\n &lt;a href=&quot;\nhttp://gifyu.com/images/OneDirection.png&quot; rel=&quot;nofollow&quot; target=&quot;_NEW&quot;&gt;\nhttp://gifyu.com/images/OneDirection.png&lt;/a&gt;\n\nMPEG4 MUSIC VID\nGeneral\nOne Direction - Night Changes\nFormat                                   : MPEG-4\nFormat profile                           : Base Media\nCodec ID                                 : isom\nFile size                                : 119 MiB\nDuration                                 : 4mn 0s\nOverall bit rate                         : 4 164 Kbps\nMusicVid name                            : Night Changes\nAlbum                                    : Four\nPerformer                                : One Direction\nGenre                                    : Pop\nContentType                              : Music Video\nRecorded date                            : 2014\nISRC                                     : The Promo Bay\nCopyright                                : One Direction\nCover                                    : Yes\nRating                                   : ***\nMake                                     : MeRaDil\noday                                     : 21-11-2014  UK\nrati                                     : (Binary)\nArtist url                               : http://onedirectionmusic.com\nlabel                                    : Syco - Columbia\nrelease                                  : UK - november 21 - 2014\nPart_ID                                  : Night Changes\n\nVideo\nID                                       : 1\nFormat                                   : AVC\nFormat/Info                              : Advanced Video Codec\nFormat profile                           : &lt;a class=&quot;__cf_email__&quot; href=&quot;/cdn-cgi/l/email-protection&quot; data-cfemail=&quot;763e1f111e363a425846&quot;&gt;[email&amp;#160;protected]&lt;/a&gt;&lt;script cf-hash='f9e31' type=&quot;text/javascript&quot;&gt;\n/* &lt;![CDATA[ */!function(){try{var t=&quot;currentScript&quot;in document?document.currentScript:function(){for(var t=document.getElementsByTagName(&quot;script&quot;),e=t.length;e--;)if(t[e].getAttribute(&quot;cf-hash&quot;))return t[e]}();if(t&amp;&amp;t.previousSibling){var e,r,n,i,c=t.previousSibling,a=c.getAttribute(&quot;data-cfemail&quot;);if(a){for(e=&quot;&quot;,r=parseInt(a.substr(0,2),16),n=2;a.length-n;n+=2)i=parseInt(a.substr(n,2),16)^r,e+=String.fromCharCode(i);e=document.createTextNode(e),c.parentNode.replaceChild(e,c)}}}catch(u){}}();/* ]]&gt; */&lt;/script&gt;\nFormat settings, CABAC                   : Yes\nFormat settings, ReFrames                : 2 frames\nCodec ID                                 : avc1\nCodec ID/Info                            : Advanced Video Coding\nDuration                                 : 4mn 0s\nBit rate                                 : 3 894 Kbps\nWidth                                    : 1 920 pixels\nHeight                                   : 1 080 pixels\nDisplay aspect ratio                     : 16:9\nFrame rate mode                          : Constant\nFrame rate                               : 25.000 fps\nColor space                              : YUV\nChroma subsampling                       : 4:2:0\nBit depth                                : 8 bits\nScan type                                : Progressive\nBits/(Pixel*Frame)                       : 0.075\nStream size                              : 111 MiB (93%)\n\nAudio\nID                                       : 2\nFormat                                   : AAC\nFormat/Info                              : Advanced Audio Codec\nFormat profile                           : LC\nCodec ID                                 : 40\nDuration                                 : 4mn 0s\nBit rate mode                            : Constant\nBit rate                                 : 256 Kbps\nChannel(s)                               : 2 channels\nChannel positions                        : Front: L R\nSampling rate                            : 44.1 KHz\nCompression mode                         : Lossy\nStream size                              : 7.33 MiB (6%)\n &lt;a href=&quot;\nhttps://thepiratebay.se/user/MeRaDil&quot; rel=&quot;nofollow&quot; target=&quot;_NEW&quot;&gt;\nhttps://thepiratebay.se/user/MeRaDil&lt;/a&gt;\n\nOne Direction * Four * Boy band * Pop * Promo\n\n:)","torrent":{"xt":"urn:btih:40678c1df253a0de2220418558c401750019a17c","amp;dn":"One+Direction+-+Night+Changes+%282014.Pop%29","amp;tr":["udp%3A%2F%2Ftracker.openbittorrent.com%3A80","udp%3A%2F%2Fopen.demonii.com%3A1337","udp%3A%2F%2Ftracker.coppersurfer.tk%3A6969","udp%3A%2F%2Fexodus.desync.com%3A6969"],"infoHash":"40678c1df253a0de2220418558c401750019a17c","infoHashBuffer":{"type":"Buffer","data":[64,103,140,29,242,83,160,222,34,32,65,133,88,196,1,117,0,25,161,124]},"announce":[],"urlList":[]}}